/videos/73a599ab-471b-8969-2404-1eb72b5259b6/hls1/main/0.ts

{"Protocol":0,"Id":"73a599ab471b896924041eb72b5259b6","Path":"/data/tvshows/Secret Invasion/Season 1/Secret Invasion - S01E01 - Resurrection WEBDL-2160p.mkv","EncoderPath":null,"EncoderProtocol":null,"Type":0,"Container":"mkv,webm","Size":2584894208,"Name":"Secret Invasion - S01E01 - Resurrection WEBDL-2160p","IsRemote":false,"ETag":"46cba778cfae418a139ffac8740dd068","RunTimeTicks":31679760384,"ReadAtNativeFramerate":false,"IgnoreDts":false,"IgnoreIndex":false,"GenPtsInput":false,"SupportsTranscoding":true,"SupportsDirectStream":true,"SupportsDirectPlay":true,"IsInfiniteStream":false,"RequiresOpening":false,"OpenToken":null,"RequiresClosing":false,"LiveStreamId":null,"BufferMs":null,"RequiresLooping":false,"SupportsProbing":true,"VideoType":0,"IsoType":null,"Video3DFormat":null,"MediaStreams":[{"Codec":"h264","CodecTag":null,"Language":null,"ColorRange":null,"ColorSpace":"bt709","ColorTransfer":"bt709","ColorPrimaries":"bt709","DvVersionMajor":null,"DvVersionMinor":null,"DvProfile":null,"DvLevel":null,"RpuPresentFlag":null,"ElPresentFlag":null,"BlPresentFlag":null,"DvBlSignalCompatibilityId":null,"Comment":null,"TimeBase":"1/1000","CodecTimeBase":null,"Title":null,"VideoRange":"SDR","VideoRangeType":"SDR","VideoDoViTitle":null,"LocalizedUndefined":null,"LocalizedDefault":null,"LocalizedForced":null,"LocalizedExternal":null,"DisplayTitle":"4K H264 SDR","NalLengthSize":"4","IsInterlaced":false,"IsAVC":true,"ChannelLayout":null,"BitRate":6527559,"BitDepth":8,"RefFrames":1,"PacketLength":null,"Channels":null,"SampleRate":null,"IsDefault":true,"IsForced":false,"Height":1608,"Width":3840,"AverageFrameRate":24,"RealFrameRate":24,"Profile":"Main","Type":1,"AspectRatio":"2.40:1","Index":0,"Score":null,"IsExternal":false,"DeliveryMethod":null,"DeliveryUrl":null,"IsExternalUrl":null,"IsTextSubtitleStream":false,"SupportsExternalStream":false,"Path":null,"PixelFormat":"yuv420p","Level":52,"IsAnamorphic":null},{"Codec":"mp3","CodecTag":null,"Language":"eng","ColorRange":null,"ColorSpace":null,"ColorTransfer":null,"ColorPrimaries":null,"DvVersionMajor":null,"DvVersionMinor":null,"DvProfile":null,"DvLevel":null,"RpuPresentFlag":null,"ElPresentFlag":null,"BlPresentFlag":null,"DvBlSignalCompatibilityId":null,"Comment":null,"TimeBase":"1/1000","CodecTimeBase":null,"Title":"Stereo","VideoRange":null,"VideoRangeType":null,"VideoDoViTitle":null,"LocalizedUndefined":null,"LocalizedDefault":null,"LocalizedForced":null,"LocalizedExternal":null,"DisplayTitle":"Stereo - English - MP3 - Default","NalLengthSize":null,"IsInterlaced":false,"IsAVC":null,"ChannelLayout":"stereo","BitRate":160000,"BitDepth":null,"RefFrames":null,"PacketLength":null,"Channels":2,"SampleRate":48000,"IsDefault":true,"IsForced":false,"Height":null,"Width":null,"AverageFrameRate":null,"RealFrameRate":null,"Profile":null,"Type":0,"AspectRatio":null,"Index":1,"Score":null,"IsExternal":false,"DeliveryMethod":null,"DeliveryUrl":null,"IsExternalUrl":null,"IsTextSubtitleStream":false,"SupportsExternalStream":false,"Path":null,"PixelFormat":null,"Level":0,"IsAnamorphic":null},{"Codec":"ass","CodecTag":null,"Language":"eng","ColorRange":null,"ColorSpace":null,"ColorTransfer":null,"ColorPrimaries":null,"DvVersionMajor":null,"DvVersionMinor":null,"DvProfile":null,"DvLevel":null,"RpuPresentFlag":null,"ElPresentFlag":null,"BlPresentFlag":null,"DvBlSignalCompatibilityId":null,"Comment":null,"TimeBase":"1/1000","CodecTimeBase":null,"Title":null,"VideoRange":null,"VideoRangeType":null,"VideoDoViTitle":null,"LocalizedUndefined":"Undefined","LocalizedDefault":"Default","LocalizedForced":"Forced","LocalizedExternal":"External","DisplayTitle":"English - ASS","NalLengthSize":null,"IsInterlaced":false,"IsAVC":null,"ChannelLayout":null,"BitRate":null,"BitDepth":null,"RefFrames":null,"PacketLength":null,"Channels":null,"SampleRate":null,"IsDefault":false,"IsForced":false,"Height":null,"Width":null,"AverageFrameRate":null,"RealFrameRate":null,"Profile":null,"Type":2,"AspectRatio":null,"Index":2,"Score":null,"IsExternal":false,"DeliveryMethod":null,"DeliveryUrl":null,"IsExternalUrl":null,"IsTextSubtitleStream":true,"SupportsExternalStream":true,"Path":null,"PixelFormat":null,"Level":0,"IsAnamorphic":null},{"Codec":"ass","CodecTag":null,"Language":"eng","ColorRange":null,"ColorSpace":null,"ColorTransfer":null,"ColorPrimaries":null,"DvVersionMajor":null,"DvVersionMinor":null,"DvProfile":null,"DvLevel":null,"RpuPresentFlag":null,"ElPresentFlag":null,"BlPresentFlag":null,"DvBlSignalCompatibilityId":null,"Comment":null,"TimeBase":"1/1000","CodecTimeBase":null,"Title":"SDH","VideoRange":null,"VideoRangeType":null,"VideoDoViTitle":null,"LocalizedUndefined":"Undefined","LocalizedDefault":"Default","LocalizedForced":"Forced","LocalizedExternal":"External","DisplayTitle":"SDH - English - ASS","NalLengthSize":null,"IsInterlaced":false,"IsAVC":null,"ChannelLayout":null,"BitRate":null,"BitDepth":null,"RefFrames":null,"PacketLength":null,"Channels":null,"SampleRate":null,"IsDefault":false,"IsForced":false,"Height":null,"Width":null,"AverageFrameRate":null,"RealFrameRate":null,"Profile":null,"Type":2,"AspectRatio":null,"Index":3,"Score":null,"IsExternal":false,"DeliveryMethod":null,"DeliveryUrl":null,"IsExternalUrl":null,"IsTextSubtitleStream":true,"SupportsExternalStream":true,"Path":null,"PixelFormat":null,"Level":0,"IsAnamorphic":null}],"MediaAttachments":[],"Formats":[],"Bitrate":6687559,"Timestamp":null,"RequiredHttpHeaders":{},"TranscodingUrl":null,"TranscodingSubProtocol":null,"TranscodingContainer":null,"AnalyzeDurationMs":null,"DefaultAudioStreamIndex":null,"DefaultSubtitleStreamIndex":null}

/usr/lib/jellyfin-ffmpeg/ffmpeg -analyzeduration 200M -fflags +genpts -f matroska,webm  -i file:"/data/tvshows/Secret Invasion/Season 1/Secret Invasion - S01E01 - Resurrection WEBDL-2160p.mkv" -map_metadata -1 -map_chapters -1 -threads 0 -map 0:0 -map 0:1 -map -0:s -codec:v:0 copy -bsf:v h264_mp4toannexb -start_at_zero -codec:a:0 copy -copyts -avoid_negative_ts disabled -max_muxing_queue_size 2048 -f hls -max_delay 5000000 -hls_time 6 -hls_segment_type mpegts -start_number 0 -hls_segment_filename "/data/transcodes/9a1e231188ad4d45cf13dff7241e9f80%d.ts" -hls_playlist_type vod -hls_list_size 0 -y "/data/transcodes/9a1e231188ad4d45cf13dff7241e9f80.m3u8"


ffmpeg version 5.1.3-Jellyfin Copyright (c) 2000-2022 the FFmpeg developers
  built with gcc 11 (Ubuntu 11.3.0-1ubuntu1~22.04.1)
  configuration: --prefix=/usr/lib/jellyfin-ffmpeg --target-os=linux --extra-libs=-lfftw3f --extra-version=Jellyfin --disable-doc --disable-ffplay --disable-ptx-compression --disable-static --disable-libxcb --disable-sdl2 --disable-xlib --enable-lto --enable-gpl --enable-version3 --enable-shared --enable-gmp --enable-gnutls --enable-chromaprint --enable-libdrm --enable-libass --enable-libfreetype --enable-libfribidi --enable-libfontconfig --enable-libbluray --enable-libmp3lame --enable-libopus --enable-libtheora --enable-libvorbis --enable-libopenmpt --enable-libdav1d --enable-libwebp --enable-libvpx --enable-libx264 --enable-libx265 --enable-libzvbi --enable-libzimg --enable-libfdk-aac --arch=amd64 --enable-libsvtav1 --enable-libshaderc --enable-libplacebo --enable-vulkan --enable-opencl --enable-vaapi --enable-amf --enable-libmfx --enable-ffnvcodec --enable-cuda --enable-cuda-llvm --enable-cuvid --enable-nvdec --enable-nvenc
  libavutil      57. 28.100 / 57. 28.100
  libavcodec     59. 37.100 / 59. 37.100
  libavformat    59. 27.100 / 59. 27.100
  libavdevice    59.  7.100 / 59.  7.100
  libavfilter     8. 44.100 /  8. 44.100
  libswscale      6.  7.100 /  6.  7.100
  libswresample   4.  7.100 /  4.  7.100
  libpostproc    56.  6.100 / 56.  6.100
Input #0, matroska,webm, from 'file:/data/tvshows/Secret Invasion/Season 1/Secret Invasion - S01E01 - Resurrection WEBDL-2160p.mkv':
  Metadata:
    creation_time   : 2023-07-05T20:22:05.000000Z
    ENCODER         : Lavf59.27.100
  Duration: 00:52:47.98, start: 0.000000, bitrate: 6527 kb/s
  Chapters:
    Chapter #0:0: start 0.000000, end 478.000000
      Metadata:
        title           : Chapter 1
    Chapter #0:1: start 478.000000, end 601.583000
      Metadata:
        title           : Intro
    Chapter #0:2: start 601.583000, end 3011.958000
      Metadata:
        title           : Chapter 3
    Chapter #0:3: start 3011.958000, end 3167.875000
      Metadata:
        title           : Credits
  Stream #0:0: Video: h264 (Main), yuv420p(tv, bt709, progressive), 3840x1608 [SAR 1:1 DAR 160:67], 24 fps, 24 tbr, 1k tbn (default)
    Metadata:
      DURATION        : 00:52:47.940000000
  Stream #0:1(eng): Audio: mp3, 48000 Hz, stereo, fltp, 160 kb/s (default)
    Metadata:
      title           : Stereo
      DURATION        : 00:52:47.976000000
  Stream #0:2(eng): Subtitle: ass
    Metadata:
      DURATION        : 00:49:36.690000000
  Stream #0:3(eng): Subtitle: ass
    Metadata:
      title           : SDH
      DURATION        : 00:49:48.565000000
Output #0, hls, to '/data/transcodes/9a1e231188ad4d45cf13dff7241e9f80.m3u8':
  Metadata:
    encoder         : Lavf59.27.100
  Stream #0:0: Video: h264 (Main), yuv420p(tv, bt709, progressive), 3840x1608 [SAR 1:1 DAR 160:67], q=2-31, 24 fps, 24 tbr, 90k tbn (default)
  Stream #0:1: Audio: mp3, 48000 Hz, stereo, fltp, 160 kb/s (default)
Stream mapping:
  Stream #0:0 -> #0:0 (copy)
  Stream #0:1 -> #0:1 (copy)
Press [q] to stop, [?] for help
frame=    0 fps=0.0 q=-1.0 size=N/A time=00:00:00.00 bitrate=N/A speed=N/A    
[hls @ 0x55ed374398c0] Opening '/data/transcodes/9a1e231188ad4d45cf13dff7241e9f800.ts' for writing
[hls @ 0x55ed374398c0] Opening '/data/transcodes/9a1e231188ad4d45cf13dff7241e9f801.ts' for writing
[hls @ 0x55ed374398c0] Opening '/data/transcodes/9a1e231188ad4d45cf13dff7241e9f802.ts' for writing
[hls @ 0x55ed374398c0] Opening '/data/transcodes/9a1e231188ad4d45cf13dff7241e9f803.ts' for writing
[hls @ 0x55ed374398c0] Opening '/data/transcodes/9a1e231188ad4d45cf13dff7241e9f804.ts' for writing
[hls @ 0x55ed374398c0] Opening '/data/transcodes/9a1e231188ad4d45cf13dff7241e9f805.ts' for writing
[hls @ 0x55ed374398c0] Opening '/data/transcodes/9a1e231188ad4d45cf13dff7241e9f806.ts' for writing
[hls @ 0x55ed374398c0] Opening '/data/transcodes/9a1e231188ad4d45cf13dff7241e9f807.ts' for writing
[hls @ 0x55ed374398c0] Opening '/data/transcodes/9a1e231188ad4d45cf13dff7241e9f808.ts' for writing
[hls @ 0x55ed374398c0] Opening '/data/transcodes/9a1e231188ad4d45cf13dff7241e9f809.ts' for writing
[hls @ 0x55ed374398c0] Opening '/data/transcodes/9a1e231188ad4d45cf13dff7241e9f8010.ts' for writing
[hls @ 0x55ed374398c0] Opening '/data/transcodes/9a1e231188ad4d45cf13dff7241e9f8011.ts' for writing
[hls @ 0x55ed374398c0] Opening '/data/transcodes/9a1e231188ad4d45cf13dff7241e9f8012.ts' for writing
[hls @ 0x55ed374398c0] Opening '/data/transcodes/9a1e231188ad4d45cf13dff7241e9f8013.ts' for writing
[hls @ 0x55ed374398c0] Opening '/data/transcodes/9a1e231188ad4d45cf13dff7241e9f8014.ts' for writing
[hls @ 0x55ed374398c0] Opening '/data/transcodes/9a1e231188ad4d45cf13dff7241e9f8015.ts' for writing
[hls @ 0x55ed374398c0] Opening '/data/transcodes/9a1e231188ad4d45cf13dff7241e9f8016.ts' for writing
[hls @ 0x55ed374398c0] Opening '/data/transcodes/9a1e231188ad4d45cf13dff7241e9f8017.ts' for writing
[hls @ 0x55ed374398c0] Opening '/data/transcodes/9a1e231188ad4d45cf13dff7241e9f8018.ts' for writing
[hls @ 0x55ed374398c0] Opening '/data/transcodes/9a1e231188ad4d45cf13dff7241e9f8019.ts' for writing
[hls @ 0x55ed374398c0] Opening '/data/transcodes/9a1e231188ad4d45cf13dff7241e9f8020.ts' for writing
[hls @ 0x55ed374398c0] Opening '/data/transcodes/9a1e231188ad4d45cf13dff7241e9f8021.ts' for writing
[hls @ 0x55ed374398c0] Opening '/data/transcodes/9a1e231188ad4d45cf13dff7241e9f8022.ts' for writing
[hls @ 0x55ed374398c0] Opening '/data/transcodes/9a1e231188ad4d45cf13dff7241e9f8023.ts' for writing
[hls @ 0x55ed374398c0] Opening '/data/transcodes/9a1e231188ad4d45cf13dff7241e9f8024.ts' for writing
[hls @ 0x55ed374398c0] Opening '/data/transcodes/9a1e231188ad4d45cf13dff7241e9f8025.ts' for writing
[hls @ 0x55ed374398c0] Opening '/data/transcodes/9a1e231188ad4d45cf13dff7241e9f8026.ts' for writing
[hls @ 0x55ed374398c0] Opening '/data/transcodes/9a1e231188ad4d45cf13dff7241e9f8027.ts' for writing
[hls @ 0x55ed374398c0] Opening '/data/transcodes/9a1e231188ad4d45cf13dff7241e9f8028.ts' for writing
[hls @ 0x55ed374398c0] Opening '/data/transcodes/9a1e231188ad4d45cf13dff7241e9f8029.ts' for writing
frame= 4321 fps=0.0 q=-1.0 size=N/A time=00:02:59.97 bitrate=N/A speed= 357x    
[hls @ 0x55ed374398c0] Opening '/data/transcodes/9a1e231188ad4d45cf13dff7241e9f8030.ts' for writing
[hls @ 0x55ed374398c0] Opening '/data/transcodes/9a1e231188ad4d45cf13dff7241e9f8031.ts' for writing
[hls @ 0x55ed374398c0] Opening '/data/transcodes/9a1e231188ad4d45cf13dff7241e9f8032.ts' for writing
[hls @ 0x55ed374398c0] Opening '/data/transcodes/9a1e231188ad4d45cf13dff7241e9f8033.ts' for writing
[hls @ 0x55ed374398c0] Opening '/data/transcodes/9a1e231188ad4d45cf13dff7241e9f8034.ts' for writing
[hls @ 0x55ed374398c0] Opening '/data/transcodes/9a1e231188ad4d45cf13dff7241e9f8035.ts' for writing
[hls @ 0x55ed374398c0] Opening '/data/transcodes/9a1e231188ad4d45cf13dff7241e9f8036.ts' for writing
[hls @ 0x55ed374398c0] Opening '/data/transcodes/9a1e231188ad4d45cf13dff7241e9f8037.ts' for writing
[hls @ 0x55ed374398c0] Opening '/data/transcodes/9a1e231188ad4d45cf13dff7241e9f8038.ts' for writing
[hls @ 0x55ed374398c0] Opening '/data/transcodes/9a1e231188ad4d45cf13dff7241e9f8039.ts' for writing
[hls @ 0x55ed374398c0] Opening '/data/transcodes/9a1e231188ad4d45cf13dff7241e9f8040.ts' for writing
[hls @ 0x55ed374398c0] Opening '/data/transcodes/9a1e231188ad4d45cf13dff7241e9f8041.ts' for writing
[hls @ 0x55ed374398c0] Opening '/data/transcodes/9a1e231188ad4d45cf13dff7241e9f8042.ts' for writing
[hls @ 0x55ed374398c0] Opening '/data/transcodes/9a1e231188ad4d45cf13dff7241e9f8043.ts' for writing
[hls @ 0x55ed374398c0] Opening '/data/transcodes/9a1e231188ad4d45cf13dff7241e9f8044.ts' for writing
[hls @ 0x55ed374398c0] Opening '/data/transcodes/9a1e231188ad4d45cf13dff7241e9f8045.ts' for writing
[hls @ 0x55ed374398c0] Opening '/data/transcodes/9a1e231188ad4d45cf13dff7241e9f8046.ts' for writing
[hls @ 0x55ed374398c0] Opening '/data/transcodes/9a1e231188ad4d45cf13dff7241e9f8047.ts' for writing
[hls @ 0x55ed374398c0] Opening '/data/transcodes/9a1e231188ad4d45cf13dff7241e9f8048.ts' for writing
[hls @ 0x55ed374398c0] Opening '/data/transcodes/9a1e231188ad4d45cf13dff7241e9f8049.ts' for writing
[hls @ 0x55ed374398c0] Opening '/data/transcodes/9a1e231188ad4d45cf13dff7241e9f8050.ts' for writing
[hls @ 0x55ed374398c0] Opening '/data/transcodes/9a1e231188ad4d45cf13dff7241e9f8051.ts' for writing
[hls @ 0x55ed374398c0] Opening '/data/transcodes/9a1e231188ad4d45cf13dff7241e9f8052.ts' for writing
[hls @ 0x55ed374398c0] Opening '/data/transcodes/9a1e231188ad4d45cf13dff7241e9f8053.ts' for writing
frame= 7969 fps=7852 q=-1.0 size=N/A time=00:05:31.92 bitrate=N/A speed= 327x    
[hls @ 0x55ed374398c0] Opening '/data/transcodes/9a1e231188ad4d45cf13dff7241e9f8054.ts' for writing
[hls @ 0x55ed374398c0] Opening '/data/transcodes/9a1e231188ad4d45cf13dff7241e9f8055.ts' for writing
[hls @ 0x55ed374398c0] Opening '/data/transcodes/9a1e231188ad4d45cf13dff7241e9f8056.ts' for writing
[hls @ 0x55ed374398c0] Opening '/data/transcodes/9a1e231188ad4d45cf13dff7241e9f8057.ts' for writing
[hls @ 0x55ed374398c0] Opening '/data/transcodes/9a1e231188ad4d45cf13dff7241e9f8058.ts' for writing
[hls @ 0x55ed374398c0] Opening '/data/transcodes/9a1e231188ad4d45cf13dff7241e9f8059.ts' for writing
[hls @ 0x55ed374398c0] Opening '/data/transcodes/9a1e231188ad4d45cf13dff7241e9f8060.ts' for writing
[hls @ 0x55ed374398c0] Opening '/data/transcodes/9a1e231188ad4d45cf13dff7241e9f8061.ts' for writing
[hls @ 0x55ed374398c0] Opening '/data/transcodes/9a1e231188ad4d45cf13dff7241e9f8062.ts' for writing
[hls @ 0x55ed374398c0] Opening '/data/transcodes/9a1e231188ad4d45cf13dff7241e9f8063.ts' for writing
[hls @ 0x55ed374398c0] Opening '/data/transcodes/9a1e231188ad4d45cf13dff7241e9f8064.ts' for writing
[hls @ 0x55ed374398c0] Opening '/data/transcodes/9a1e231188ad4d45cf13dff7241e9f8065.ts' for writing
[hls @ 0x55ed374398c0] Opening '/data/transcodes/9a1e231188ad4d45cf13dff7241e9f8066.ts' for writing
[hls @ 0x55ed374398c0] Opening '/data/transcodes/9a1e231188ad4d45cf13dff7241e9f8067.ts' for writing
[hls @ 0x55ed374398c0] Opening '/data/transcodes/9a1e231188ad4d45cf13dff7241e9f8068.ts' for writing
[hls @ 0x55ed374398c0] Opening '/data/transcodes/9a1e231188ad4d45cf13dff7241e9f8069.ts' for writing
[hls @ 0x55ed374398c0] Opening '/data/transcodes/9a1e231188ad4d45cf13dff7241e9f8070.ts' for writing
[hls @ 0x55ed374398c0] Opening '/data/transcodes/9a1e231188ad4d45cf13dff7241e9f8071.ts' for writing
[hls @ 0x55ed374398c0] Opening '/data/transcodes/9a1e231188ad4d45cf13dff7241e9f8072.ts' for writing
[hls @ 0x55ed374398c0] Opening '/data/transcodes/9a1e231188ad4d45cf13dff7241e9f8073.ts' for writing
[hls @ 0x55ed374398c0] Opening '/data/transcodes/9a1e231188ad4d45cf13dff7241e9f8074.ts' for writing
[hls @ 0x55ed374398c0] Opening '/data/transcodes/9a1e231188ad4d45cf13dff7241e9f8075.ts' for writing
[hls @ 0x55ed374398c0] Opening '/data/transcodes/9a1e231188ad4d45cf13dff7241e9f8076.ts' for writing
[hls @ 0x55ed374398c0] Opening '/data/transcodes/9a1e231188ad4d45cf13dff7241e9f8077.ts' for writing
[hls @ 0x55ed374398c0] Opening '/data/transcodes/9a1e231188ad4d45cf13dff7241e9f8078.ts' for writing
[hls @ 0x55ed374398c0] Opening '/data/transcodes/9a1e231188ad4d45cf13dff7241e9f8079.ts' for writing
frame=11521 fps=7512 q=-1.0 size=N/A time=00:07:59.97 bitrate=N/A speed= 313x    
[hls @ 0x55ed374398c0] Opening '/data/transcodes/9a1e231188ad4d45cf13dff7241e9f8080.ts' for writing
[hls @ 0x55ed374398c0] Opening '/data/transcodes/9a1e231188ad4d45cf13dff7241e9f8081.ts' for writing
[hls @ 0x55ed374398c0] Opening '/data/transcodes/9a1e231188ad4d45cf13dff7241e9f8082.ts' for writing
frame=12080 fps=5939 q=-1.0 size=N/A time=00:08:23.23 bitrate=N/A speed= 247x    
[hls @ 0x55ed374398c0] Opening '/data/transcodes/9a1e231188ad4d45cf13dff7241e9f8083.ts' for writing
[hls @ 0x55ed374398c0] Opening '/data/transcodes/9a1e231188ad4d45cf13dff7241e9f8084.ts' for writing
[hls @ 0x55ed374398c0] Opening '/data/transcodes/9a1e231188ad4d45cf13dff7241e9f8085.ts' for writing
[hls @ 0x55ed374398c0] Opening '/data/transcodes/9a1e231188ad4d45cf13dff7241e9f8086.ts' for writing
[hls @ 0x55ed374398c0] Opening '/data/transcodes/9a1e231188ad4d45cf13dff7241e9f8087.ts' for writing
[hls @ 0x55ed374398c0] Opening '/data/transcodes/9a1e231188ad4d45cf13dff7241e9f8088.ts' for writing
frame=12825 fps=5036 q=-1.0 size=N/A time=00:08:54.31 bitrate=N/A speed= 210x    
[hls @ 0x55ed374398c0] Opening '/data/transcodes/9a1e231188ad4d45cf13dff7241e9f8089.ts' for writing
[hls @ 0x55ed374398c0] Opening '/data/transcodes/9a1e231188ad4d45cf13dff7241e9f8090.ts' for writing
[hls @ 0x55ed374398c0] Opening '/data/transcodes/9a1e231188ad4d45cf13dff7241e9f8091.ts' for writing
[hls @ 0x55ed374398c0] Opening '/data/transcodes/9a1e231188ad4d45cf13dff7241e9f8092.ts' for writing
[hls @ 0x55ed374398c0] Opening '/data/transcodes/9a1e231188ad4d45cf13dff7241e9f8093.ts' for writing
[hls @ 0x55ed374398c0] Opening '/data/transcodes/9a1e231188ad4d45cf13dff7241e9f8094.ts' for writing
[hls @ 0x55ed374398c0] Opening '/data/transcodes/9a1e231188ad4d45cf13dff7241e9f8095.ts' for writing
frame=13890 fps=4558 q=-1.0 size=N/A time=00:09:38.66 bitrate=N/A speed= 190x    
[hls @ 0x55ed374398c0] Opening '/data/transcodes/9a1e231188ad4d45cf13dff7241e9f8096.ts' for writing
[hls @ 0x55ed374398c0] Opening '/data/transcodes/9a1e231188ad4d45cf13dff7241e9f8097.ts' for writing
[hls @ 0x55ed374398c0] Opening '/data/transcodes/9a1e231188ad4d45cf13dff7241e9f8098.ts' for writing
[hls @ 0x55ed374398c0] Opening '/data/transcodes/9a1e231188ad4d45cf13dff7241e9f8099.ts' for writing
[hls @ 0x55ed374398c0] Opening '/data/transcodes/9a1e231188ad4d45cf13dff7241e9f80100.ts' for writing
[hls @ 0x55ed374398c0] Opening '/data/transcodes/9a1e231188ad4d45cf13dff7241e9f80101.ts' for writing
[hls @ 0x55ed374398c0] Opening '/data/transcodes/9a1e231188ad4d45cf13dff7241e9f80102.ts' for writing
[hls @ 0x55ed374398c0] Opening '/data/transcodes/9a1e231188ad4d45cf13dff7241e9f80103.ts' for writing
[hls @ 0x55ed374398c0] Opening '/data/transcodes/9a1e231188ad4d45cf13dff7241e9f80104.ts' for writing
[hls @ 0x55ed374398c0] Opening '/data/transcodes/9a1e231188ad4d45cf13dff7241e9f80105.ts' for writing
[hls @ 0x55ed374398c0] Opening '/data/transcodes/9a1e231188ad4d45cf13dff7241e9f80106.ts' for writing
[hls @ 0x55ed374398c0] Opening '/data/transcodes/9a1e231188ad4d45cf13dff7241e9f80107.ts' for writing
[hls @ 0x55ed374398c0] Opening '/data/transcodes/9a1e231188ad4d45cf13dff7241e9f80108.ts' for writing
[hls @ 0x55ed374398c0] Opening '/data/transcodes/9a1e231188ad4d45cf13dff7241e9f80109.ts' for writing
[hls @ 0x55ed374398c0] Opening '/data/transcodes/9a1e231188ad4d45cf13dff7241e9f80110.ts' for writing
[hls @ 0x55ed374398c0] Opening '/data/transcodes/9a1e231188ad4d45cf13dff7241e9f80111.ts' for writing
[hls @ 0x55ed374398c0] Opening '/data/transcodes/9a1e231188ad4d45cf13dff7241e9f80112.ts' for writing
[hls @ 0x55ed374398c0] Opening '/data/transcodes/9a1e231188ad4d45cf13dff7241e9f80113.ts' for writing
[hls @ 0x55ed374398c0] Opening '/data/transcodes/9a1e231188ad4d45cf13dff7241e9f80114.ts' for writing
[hls @ 0x55ed374398c0] Opening '/data/transcodes/9a1e231188ad4d45cf13dff7241e9f80115.ts' for writing
[hls @ 0x55ed374398c0] Opening '/data/transcodes/9a1e231188ad4d45cf13dff7241e9f80116.ts' for writing
[hls @ 0x55ed374398c0] Opening '/data/transcodes/9a1e231188ad4d45cf13dff7241e9f80117.ts' for writing
[hls @ 0x55ed374398c0] Opening '/data/transcodes/9a1e231188ad4d45cf13dff7241e9f80118.ts' for writing
[hls @ 0x55ed374398c0] Opening '/data/transcodes/9a1e231188ad4d45cf13dff7241e9f80119.ts' for writing
[hls @ 0x55ed374398c0] Opening '/data/transcodes/9a1e231188ad4d45cf13dff7241e9f80120.ts' for writing
[hls @ 0x55ed374398c0] Opening '/data/transcodes/9a1e231188ad4d45cf13dff7241e9f80121.ts' for writing
[hls @ 0x55ed374398c0] Opening '/data/transcodes/9a1e231188ad4d45cf13dff7241e9f80122.ts' for writing
frame=17784 fps=5014 q=-1.0 size=N/A time=00:12:20.92 bitrate=N/A speed= 209x    
[hls @ 0x55ed374398c0] Opening '/data/transcodes/9a1e231188ad4d45cf13dff7241e9f80123.ts' for writing
[hls @ 0x55ed374398c0] Opening '/data/transcodes/9a1e231188ad4d45cf13dff7241e9f80124.ts' for writing
[hls @ 0x55ed374398c0] Opening '/data/transcodes/9a1e231188ad4d45cf13dff7241e9f80125.ts' for writing
[hls @ 0x55ed374398c0] Opening '/data/transcodes/9a1e231188ad4d45cf13dff7241e9f80126.ts' for writing
[hls @ 0x55ed374398c0] Opening '/data/transcodes/9a1e231188ad4d45cf13dff7241e9f80127.ts' for writing
[hls @ 0x55ed374398c0] Opening '/data/transcodes/9a1e231188ad4d45cf13dff7241e9f80128.ts' for writing
[hls @ 0x55ed374398c0] Opening '/data/transcodes/9a1e231188ad4d45cf13dff7241e9f80129.ts' for writing
[hls @ 0x55ed374398c0] Opening '/data/transcodes/9a1e231188ad4d45cf13dff7241e9f80130.ts' for writing
[hls @ 0x55ed374398c0] Opening '/data/transcodes/9a1e231188ad4d45cf13dff7241e9f80131.ts' for writing
[hls @ 0x55ed374398c0] Opening '/data/transcodes/9a1e231188ad4d45cf13dff7241e9f80132.ts' for writing
[hls @ 0x55ed374398c0] Opening '/data/transcodes/9a1e231188ad4d45cf13dff7241e9f80133.ts' for writing
[hls @ 0x55ed374398c0] Opening '/data/transcodes/9a1e231188ad4d45cf13dff7241e9f80134.ts' for writing
[hls @ 0x55ed374398c0] Opening '/data/transcodes/9a1e231188ad4d45cf13dff7241e9f80135.ts' for writing
[hls @ 0x55ed374398c0] Opening '/data/transcodes/9a1e231188ad4d45cf13dff7241e9f80136.ts' for writing
[hls @ 0x55ed374398c0] Opening '/data/transcodes/9a1e231188ad4d45cf13dff7241e9f80137.ts' for writing
[hls @ 0x55ed374398c0] Opening '/data/transcodes/9a1e231188ad4d45cf13dff7241e9f80138.ts' for writing
[hls @ 0x55ed374398c0] Opening '/data/transcodes/9a1e231188ad4d45cf13dff7241e9f80139.ts' for writing
[hls @ 0x55ed374398c0] Opening '/data/transcodes/9a1e231188ad4d45cf13dff7241e9f80140.ts' for writing
[hls @ 0x55ed374398c0] Opening '/data/transcodes/9a1e231188ad4d45cf13dff7241e9f80141.ts' for writing
[hls @ 0x55ed374398c0] Opening '/data/transcodes/9a1e231188ad4d45cf13dff7241e9f80142.ts' for writing
[hls @ 0x55ed374398c0] Opening '/data/transcodes/9a1e231188ad4d45cf13dff7241e9f80143.ts' for writing
[hls @ 0x55ed374398c0] Opening '/data/transcodes/9a1e231188ad4d45cf13dff7241e9f80144.ts' for writing
[hls @ 0x55ed374398c0] Opening '/data/transcodes/9a1e231188ad4d45cf13dff7241e9f80145.ts' for writing
[hls @ 0x55ed374398c0] Opening '/data/transcodes/9a1e231188ad4d45cf13dff7241e9f80146.ts' for writing
[hls @ 0x55ed374398c0] Opening '/data/transcodes/9a1e231188ad4d45cf13dff7241e9f80147.ts' for writing
[hls @ 0x55ed374398c0] Opening '/data/transcodes/9a1e231188ad4d45cf13dff7241e9f80148.ts' for writing
[hls @ 0x55ed374398c0] Opening '/data/transcodes/9a1e231188ad4d45cf13dff7241e9f80149.ts' for writing
[hls @ 0x55ed374398c0] Opening '/data/transcodes/9a1e231188ad4d45cf13dff7241e9f80150.ts' for writing
[hls @ 0x55ed374398c0] Opening '/data/transcodes/9a1e231188ad4d45cf13dff7241e9f80151.ts' for writing
[hls @ 0x55ed374398c0] Opening '/data/transcodes/9a1e231188ad4d45cf13dff7241e9f80152.ts' for writing
[hls @ 0x55ed374398c0] Opening '/data/transcodes/9a1e231188ad4d45cf13dff7241e9f80153.ts' for writing
[hls @ 0x55ed374398c0] Opening '/data/transcodes/9a1e231188ad4d45cf13dff7241e9f80154.ts' for writing
[hls @ 0x55ed374398c0] Opening '/data/transcodes/9a1e231188ad4d45cf13dff7241e9f80155.ts' for writing
[hls @ 0x55ed374398c0] Opening '/data/transcodes/9a1e231188ad4d45cf13dff7241e9f80156.ts' for writing
[hls @ 0x55ed374398c0] Opening '/data/transcodes/9a1e231188ad4d45cf13dff7241e9f80157.ts' for writing
[hls @ 0x55ed374398c0] Opening '/data/transcodes/9a1e231188ad4d45cf13dff7241e9f80158.ts' for writing
[hls @ 0x55ed374398c0] Opening '/data/transcodes/9a1e231188ad4d45cf13dff7241e9f80159.ts' for writing
[hls @ 0x55ed374398c0] Opening '/data/transcodes/9a1e231188ad4d45cf13dff7241e9f80160.ts' for writing
[hls @ 0x55ed374398c0] Opening '/data/transcodes/9a1e231188ad4d45cf13dff7241e9f80161.ts' for writing
[hls @ 0x55ed374398c0] Opening '/data/transcodes/9a1e231188ad4d45cf13dff7241e9f80162.ts' for writing
frame=23473 fps=5781 q=-1.0 size=N/A time=00:16:17.97 bitrate=N/A speed= 241x    
[hls @ 0x55ed374398c0] Opening '/data/transcodes/9a1e231188ad4d45cf13dff7241e9f80163.ts' for writing
[hls @ 0x55ed374398c0] Opening '/data/transcodes/9a1e231188ad4d45cf13dff7241e9f80164.ts' for writing
[hls @ 0x55ed374398c0] Opening '/data/transcodes/9a1e231188ad4d45cf13dff7241e9f80165.ts' for writing
[hls @ 0x55ed374398c0] Opening '/data/transcodes/9a1e231188ad4d45cf13dff7241e9f80166.ts' for writing
[hls @ 0x55ed374398c0] Opening '/data/transcodes/9a1e231188ad4d45cf13dff7241e9f80167.ts' for writing
[hls @ 0x55ed374398c0] Opening '/data/transcodes/9a1e231188ad4d45cf13dff7241e9f80168.ts' for writing
[hls @ 0x55ed374398c0] Opening '/data/transcodes/9a1e231188ad4d45cf13dff7241e9f80169.ts' for writing
[hls @ 0x55ed374398c0] Opening '/data/transcodes/9a1e231188ad4d45cf13dff7241e9f80170.ts' for writing
[hls @ 0x55ed374398c0] Opening '/data/transcodes/9a1e231188ad4d45cf13dff7241e9f80171.ts' for writing
[hls @ 0x55ed374398c0] Opening '/data/transcodes/9a1e231188ad4d45cf13dff7241e9f80172.ts' for writing
[hls @ 0x55ed374398c0] Opening '/data/transcodes/9a1e231188ad4d45cf13dff7241e9f80173.ts' for writing
[hls @ 0x55ed374398c0] Opening '/data/transcodes/9a1e231188ad4d45cf13dff7241e9f80174.ts' for writing
[hls @ 0x55ed374398c0] Opening '/data/transcodes/9a1e231188ad4d45cf13dff7241e9f80175.ts' for writing
[hls @ 0x55ed374398c0] Opening '/data/transcodes/9a1e231188ad4d45cf13dff7241e9f80176.ts' for writing
[hls @ 0x55ed374398c0] Opening '/data/transcodes/9a1e231188ad4d45cf13dff7241e9f80177.ts' for writing
[hls @ 0x55ed374398c0] Opening '/data/transcodes/9a1e231188ad4d45cf13dff7241e9f80178.ts' for writing
[hls @ 0x55ed374398c0] Opening '/data/transcodes/9a1e231188ad4d45cf13dff7241e9f80179.ts' for writing
[hls @ 0x55ed374398c0] Opening '/data/transcodes/9a1e231188ad4d45cf13dff7241e9f80180.ts' for writing
[hls @ 0x55ed374398c0] Opening '/data/transcodes/9a1e231188ad4d45cf13dff7241e9f80181.ts' for writing
[hls @ 0x55ed374398c0] Opening '/data/transcodes/9a1e231188ad4d45cf13dff7241e9f80182.ts' for writing
[hls @ 0x55ed374398c0] Opening '/data/transcodes/9a1e231188ad4d45cf13dff7241e9f80183.ts' for writing
[hls @ 0x55ed374398c0] Opening '/data/transcodes/9a1e231188ad4d45cf13dff7241e9f80184.ts' for writing
[hls @ 0x55ed374398c0] Opening '/data/transcodes/9a1e231188ad4d45cf13dff7241e9f80185.ts' for writing
[hls @ 0x55ed374398c0] Opening '/data/transcodes/9a1e231188ad4d45cf13dff7241e9f80186.ts' for writing
[hls @ 0x55ed374398c0] Opening '/data/transcodes/9a1e231188ad4d45cf13dff7241e9f80187.ts' for writing
[hls @ 0x55ed374398c0] Opening '/data/transcodes/9a1e231188ad4d45cf13dff7241e9f80188.ts' for writing
[hls @ 0x55ed374398c0] Opening '/data/transcodes/9a1e231188ad4d45cf13dff7241e9f80189.ts' for writing
[hls @ 0x55ed374398c0] Opening '/data/transcodes/9a1e231188ad4d45cf13dff7241e9f80190.ts' for writing
[hls @ 0x55ed374398c0] Opening '/data/transcodes/9a1e231188ad4d45cf13dff7241e9f80191.ts' for writing
frame=27804 fps=6096 q=-1.0 size=N/A time=00:19:18.43 bitrate=N/A speed= 254x    
[hls @ 0x55ed374398c0] Opening '/data/transcodes/9a1e231188ad4d45cf13dff7241e9f80192.ts' for writing
[hls @ 0x55ed374398c0] Opening '/data/transcodes/9a1e231188ad4d45cf13dff7241e9f80193.ts' for writing
[hls @ 0x55ed374398c0] Opening '/data/transcodes/9a1e231188ad4d45cf13dff7241e9f80194.ts' for writing
[hls @ 0x55ed374398c0] Opening '/data/transcodes/9a1e231188ad4d45cf13dff7241e9f80195.ts' for writing
[hls @ 0x55ed374398c0] Opening '/data/transcodes/9a1e231188ad4d45cf13dff7241e9f80196.ts' for writing
[hls @ 0x55ed374398c0] Opening '/data/transcodes/9a1e231188ad4d45cf13dff7241e9f80197.ts' for writing
[hls @ 0x55ed374398c0] Opening '/data/transcodes/9a1e231188ad4d45cf13dff7241e9f80198.ts' for writing
[hls @ 0x55ed374398c0] Opening '/data/transcodes/9a1e231188ad4d45cf13dff7241e9f80199.ts' for writing
[hls @ 0x55ed374398c0] Opening '/data/transcodes/9a1e231188ad4d45cf13dff7241e9f80200.ts' for writing
[hls @ 0x55ed374398c0] Opening '/data/transcodes/9a1e231188ad4d45cf13dff7241e9f80201.ts' for writing
[hls @ 0x55ed374398c0] Opening '/data/transcodes/9a1e231188ad4d45cf13dff7241e9f80202.ts' for writing
[hls @ 0x55ed374398c0] Opening '/data/transcodes/9a1e231188ad4d45cf13dff7241e9f80203.ts' for writing
[hls @ 0x55ed374398c0] Opening '/data/transcodes/9a1e231188ad4d45cf13dff7241e9f80204.ts' for writing
[hls @ 0x55ed374398c0] Opening '/data/transcodes/9a1e231188ad4d45cf13dff7241e9f80205.ts' for writing
[hls @ 0x55ed374398c0] Opening '/data/transcodes/9a1e231188ad4d45cf13dff7241e9f80206.ts' for writing
[hls @ 0x55ed374398c0] Opening '/data/transcodes/9a1e231188ad4d45cf13dff7241e9f80207.ts' for writing
[hls @ 0x55ed374398c0] Opening '/data/transcodes/9a1e231188ad4d45cf13dff7241e9f80208.ts' for writing
[hls @ 0x55ed374398c0] Opening '/data/transcodes/9a1e231188ad4d45cf13dff7241e9f80209.ts' for writing
[hls @ 0x55ed374398c0] Opening '/data/transcodes/9a1e231188ad4d45cf13dff7241e9f80210.ts' for writing
[hls @ 0x55ed374398c0] Opening '/data/transcodes/9a1e231188ad4d45cf13dff7241e9f80211.ts' for writing
[hls @ 0x55ed374398c0] Opening '/data/transcodes/9a1e231188ad4d45cf13dff7241e9f80212.ts' for writing
[hls @ 0x55ed374398c0] Opening '/data/transcodes/9a1e231188ad4d45cf13dff7241e9f80213.ts' for writing
[hls @ 0x55ed374398c0] Opening '/data/transcodes/9a1e231188ad4d45cf13dff7241e9f80214.ts' for writing
[hls @ 0x55ed374398c0] Opening '/data/transcodes/9a1e231188ad4d45cf13dff7241e9f80215.ts' for writing
[hls @ 0x55ed374398c0] Opening '/data/transcodes/9a1e231188ad4d45cf13dff7241e9f80216.ts' for writing
[hls @ 0x55ed374398c0] Opening '/data/transcodes/9a1e231188ad4d45cf13dff7241e9f80217.ts' for writing
[hls @ 0x55ed374398c0] Opening '/data/transcodes/9a1e231188ad4d45cf13dff7241e9f80218.ts' for writing
frame=31624 fps=6249 q=-1.0 size=N/A time=00:21:57.57 bitrate=N/A speed= 260x    
[hls @ 0x55ed374398c0] Opening '/data/transcodes/9a1e231188ad4d45cf13dff7241e9f80219.ts' for writing
[hls @ 0x55ed374398c0] Opening '/data/transcodes/9a1e231188ad4d45cf13dff7241e9f80220.ts' for writing
[hls @ 0x55ed374398c0] Opening '/data/transcodes/9a1e231188ad4d45cf13dff7241e9f80221.ts' for writing
[hls @ 0x55ed374398c0] Opening '/data/transcodes/9a1e231188ad4d45cf13dff7241e9f80222.ts' for writing
[hls @ 0x55ed374398c0] Opening '/data/transcodes/9a1e231188ad4d45cf13dff7241e9f80223.ts' for writing
[hls @ 0x55ed374398c0] Opening '/data/transcodes/9a1e231188ad4d45cf13dff7241e9f80224.ts' for writing
[hls @ 0x55ed374398c0] Opening '/data/transcodes/9a1e231188ad4d45cf13dff7241e9f80225.ts' for writing
[hls @ 0x55ed374398c0] Opening '/data/transcodes/9a1e231188ad4d45cf13dff7241e9f80226.ts' for writing
[hls @ 0x55ed374398c0] Opening '/data/transcodes/9a1e231188ad4d45cf13dff7241e9f80227.ts' for writing
[hls @ 0x55ed374398c0] Opening '/data/transcodes/9a1e231188ad4d45cf13dff7241e9f80228.ts' for writing
[hls @ 0x55ed374398c0] Opening '/data/transcodes/9a1e231188ad4d45cf13dff7241e9f80229.ts' for writing
[hls @ 0x55ed374398c0] Opening '/data/transcodes/9a1e231188ad4d45cf13dff7241e9f80230.ts' for writing
[hls @ 0x55ed374398c0] Opening '/data/transcodes/9a1e231188ad4d45cf13dff7241e9f80231.ts' for writing
[hls @ 0x55ed374398c0] Opening '/data/transcodes/9a1e231188ad4d45cf13dff7241e9f80232.ts' for writing
[hls @ 0x55ed374398c0] Opening '/data/transcodes/9a1e231188ad4d45cf13dff7241e9f80233.ts' for writing
[hls @ 0x55ed374398c0] Opening '/data/transcodes/9a1e231188ad4d45cf13dff7241e9f80234.ts' for writing
frame=34015 fps=6117 q=-1.0 size=N/A time=00:23:37.20 bitrate=N/A speed= 255x    
[hls @ 0x55ed374398c0] Opening '/data/transcodes/9a1e231188ad4d45cf13dff7241e9f80235.ts' for writing
[hls @ 0x55ed374398c0] Opening '/data/transcodes/9a1e231188ad4d45cf13dff7241e9f80236.ts' for writing
[hls @ 0x55ed374398c0] Opening '/data/transcodes/9a1e231188ad4d45cf13dff7241e9f80237.ts' for writing
[hls @ 0x55ed374398c0] Opening '/data/transcodes/9a1e231188ad4d45cf13dff7241e9f80238.ts' for writing
[hls @ 0x55ed374398c0] Opening '/data/transcodes/9a1e231188ad4d45cf13dff7241e9f80239.ts' for writing
[hls @ 0x55ed374398c0] Opening '/data/transcodes/9a1e231188ad4d45cf13dff7241e9f80240.ts' for writing
[hls @ 0x55ed374398c0] Opening '/data/transcodes/9a1e231188ad4d45cf13dff7241e9f80241.ts' for writing
[hls @ 0x55ed374398c0] Opening '/data/transcodes/9a1e231188ad4d45cf13dff7241e9f80242.ts' for writing
[hls @ 0x55ed374398c0] Opening '/data/transcodes/9a1e231188ad4d45cf13dff7241e9f80243.ts' for writing
[hls @ 0x55ed374398c0] Opening '/data/transcodes/9a1e231188ad4d45cf13dff7241e9f80244.ts' for writing
[hls @ 0x55ed374398c0] Opening '/data/transcodes/9a1e231188ad4d45cf13dff7241e9f80245.ts' for writing
[hls @ 0x55ed374398c0] Opening '/data/transcodes/9a1e231188ad4d45cf13dff7241e9f80246.ts' for writing
[hls @ 0x55ed374398c0] Opening '/data/transcodes/9a1e231188ad4d45cf13dff7241e9f80247.ts' for writing
[hls @ 0x55ed374398c0] Opening '/data/transcodes/9a1e231188ad4d45cf13dff7241e9f80248.ts' for writing
[hls @ 0x55ed374398c0] Opening '/data/transcodes/9a1e231188ad4d45cf13dff7241e9f80249.ts' for writing
[hls @ 0x55ed374398c0] Opening '/data/transcodes/9a1e231188ad4d45cf13dff7241e9f80250.ts' for writing
[hls @ 0x55ed374398c0] Opening '/data/transcodes/9a1e231188ad4d45cf13dff7241e9f80251.ts' for writing
[hls @ 0x55ed374398c0] Opening '/data/transcodes/9a1e231188ad4d45cf13dff7241e9f80252.ts' for writing
[hls @ 0x55ed374398c0] Opening '/data/transcodes/9a1e231188ad4d45cf13dff7241e9f80253.ts' for writing
[hls @ 0x55ed374398c0] Opening '/data/transcodes/9a1e231188ad4d45cf13dff7241e9f80254.ts' for writing
[hls @ 0x55ed374398c0] Opening '/data/transcodes/9a1e231188ad4d45cf13dff7241e9f80255.ts' for writing
frame=36922 fps=6092 q=-1.0 size=N/A time=00:25:38.32 bitrate=N/A speed= 254x    
[hls @ 0x55ed374398c0] Opening '/data/transcodes/9a1e231188ad4d45cf13dff7241e9f80256.ts' for writing
[hls @ 0x55ed374398c0] Opening '/data/transcodes/9a1e231188ad4d45cf13dff7241e9f80257.ts' for writing
[hls @ 0x55ed374398c0] Opening '/data/transcodes/9a1e231188ad4d45cf13dff7241e9f80258.ts' for writing
[hls @ 0x55ed374398c0] Opening '/data/transcodes/9a1e231188ad4d45cf13dff7241e9f80259.ts' for writing
[hls @ 0x55ed374398c0] Opening '/data/transcodes/9a1e231188ad4d45cf13dff7241e9f80260.ts' for writing
[hls @ 0x55ed374398c0] Opening '/data/transcodes/9a1e231188ad4d45cf13dff7241e9f80261.ts' for writing
[hls @ 0x55ed374398c0] Opening '/data/transcodes/9a1e231188ad4d45cf13dff7241e9f80262.ts' for writing
[hls @ 0x55ed374398c0] Opening '/data/transcodes/9a1e231188ad4d45cf13dff7241e9f80263.ts' for writing
[hls @ 0x55ed374398c0] Opening '/data/transcodes/9a1e231188ad4d45cf13dff7241e9f80264.ts' for writing
[hls @ 0x55ed374398c0] Opening '/data/transcodes/9a1e231188ad4d45cf13dff7241e9f80265.ts' for writing
[hls @ 0x55ed374398c0] Opening '/data/transcodes/9a1e231188ad4d45cf13dff7241e9f80266.ts' for writing
[hls @ 0x55ed374398c0] Opening '/data/transcodes/9a1e231188ad4d45cf13dff7241e9f80267.ts' for writing
[hls @ 0x55ed374398c0] Opening '/data/transcodes/9a1e231188ad4d45cf13dff7241e9f80268.ts' for writing
[hls @ 0x55ed374398c0] Opening '/data/transcodes/9a1e231188ad4d45cf13dff7241e9f80269.ts' for writing
[hls @ 0x55ed374398c0] Opening '/data/transcodes/9a1e231188ad4d45cf13dff7241e9f80270.ts' for writing
[hls @ 0x55ed374398c0] Opening '/data/transcodes/9a1e231188ad4d45cf13dff7241e9f80271.ts' for writing
[hls @ 0x55ed374398c0] Opening '/data/transcodes/9a1e231188ad4d45cf13dff7241e9f80272.ts' for writing
[hls @ 0x55ed374398c0] Opening '/data/transcodes/9a1e231188ad4d45cf13dff7241e9f80273.ts' for writing
[hls @ 0x55ed374398c0] Opening '/data/transcodes/9a1e231188ad4d45cf13dff7241e9f80274.ts' for writing
[hls @ 0x55ed374398c0] Opening '/data/transcodes/9a1e231188ad4d45cf13dff7241e9f80275.ts' for writing
[hls @ 0x55ed374398c0] Opening '/data/transcodes/9a1e231188ad4d45cf13dff7241e9f80276.ts' for writing
[hls @ 0x55ed374398c0] Opening '/data/transcodes/9a1e231188ad4d45cf13dff7241e9f80277.ts' for writing
[hls @ 0x55ed374398c0] Opening '/data/transcodes/9a1e231188ad4d45cf13dff7241e9f80278.ts' for writing
[hls @ 0x55ed374398c0] Opening '/data/transcodes/9a1e231188ad4d45cf13dff7241e9f80279.ts' for writing
[hls @ 0x55ed374398c0] Opening '/data/transcodes/9a1e231188ad4d45cf13dff7241e9f80280.ts' for writing
[hls @ 0x55ed374398c0] Opening '/data/transcodes/9a1e231188ad4d45cf13dff7241e9f80281.ts' for writing
[hls @ 0x55ed374398c0] Opening '/data/transcodes/9a1e231188ad4d45cf13dff7241e9f80282.ts' for writing
[hls @ 0x55ed374398c0] Opening '/data/transcodes/9a1e231188ad4d45cf13dff7241e9f80283.ts' for writing
[hls @ 0x55ed374398c0] Opening '/data/transcodes/9a1e231188ad4d45cf13dff7241e9f80284.ts' for writing
[hls @ 0x55ed374398c0] Opening '/data/transcodes/9a1e231188ad4d45cf13dff7241e9f80285.ts' for writing
[hls @ 0x55ed374398c0] Opening '/data/transcodes/9a1e231188ad4d45cf13dff7241e9f80286.ts' for writing
[hls @ 0x55ed374398c0] Opening '/data/transcodes/9a1e231188ad4d45cf13dff7241e9f80287.ts' for writing
[hls @ 0x55ed374398c0] Opening '/data/transcodes/9a1e231188ad4d45cf13dff7241e9f80288.ts' for writing
frame=41893 fps=6378 q=-1.0 size=N/A time=00:29:05.47 bitrate=N/A speed= 266x    
[hls @ 0x55ed374398c0] Opening '/data/transcodes/9a1e231188ad4d45cf13dff7241e9f80289.ts' for writing
[hls @ 0x55ed374398c0] Opening '/data/transcodes/9a1e231188ad4d45cf13dff7241e9f80290.ts' for writing
[hls @ 0x55ed374398c0] Opening '/data/transcodes/9a1e231188ad4d45cf13dff7241e9f80291.ts' for writing
[hls @ 0x55ed374398c0] Opening '/data/transcodes/9a1e231188ad4d45cf13dff7241e9f80292.ts' for writing
[hls @ 0x55ed374398c0] Opening '/data/transcodes/9a1e231188ad4d45cf13dff7241e9f80293.ts' for writing
[hls @ 0x55ed374398c0] Opening '/data/transcodes/9a1e231188ad4d45cf13dff7241e9f80294.ts' for writing
[hls @ 0x55ed374398c0] Opening '/data/transcodes/9a1e231188ad4d45cf13dff7241e9f80295.ts' for writing
[hls @ 0x55ed374398c0] Opening '/data/transcodes/9a1e231188ad4d45cf13dff7241e9f80296.ts' for writing
[hls @ 0x55ed374398c0] Opening '/data/transcodes/9a1e231188ad4d45cf13dff7241e9f80297.ts' for writing
[hls @ 0x55ed374398c0] Opening '/data/transcodes/9a1e231188ad4d45cf13dff7241e9f80298.ts' for writing
[hls @ 0x55ed374398c0] Opening '/data/transcodes/9a1e231188ad4d45cf13dff7241e9f80299.ts' for writing
[hls @ 0x55ed374398c0] Opening '/data/transcodes/9a1e231188ad4d45cf13dff7241e9f80300.ts' for writing
[hls @ 0x55ed374398c0] Opening '/data/transcodes/9a1e231188ad4d45cf13dff7241e9f80301.ts' for writing
[hls @ 0x55ed374398c0] Opening '/data/transcodes/9a1e231188ad4d45cf13dff7241e9f80302.ts' for writing
[hls @ 0x55ed374398c0] Opening '/data/transcodes/9a1e231188ad4d45cf13dff7241e9f80303.ts' for writing
[hls @ 0x55ed374398c0] Opening '/data/transcodes/9a1e231188ad4d45cf13dff7241e9f80304.ts' for writing
[hls @ 0x55ed374398c0] Opening '/data/transcodes/9a1e231188ad4d45cf13dff7241e9f80305.ts' for writing
[hls @ 0x55ed374398c0] Opening '/data/transcodes/9a1e231188ad4d45cf13dff7241e9f80306.ts' for writing
[hls @ 0x55ed374398c0] Opening '/data/transcodes/9a1e231188ad4d45cf13dff7241e9f80307.ts' for writing
[hls @ 0x55ed374398c0] Opening '/data/transcodes/9a1e231188ad4d45cf13dff7241e9f80308.ts' for writing
[hls @ 0x55ed374398c0] Opening '/data/transcodes/9a1e231188ad4d45cf13dff7241e9f80309.ts' for writing
[hls @ 0x55ed374398c0] Opening '/data/transcodes/9a1e231188ad4d45cf13dff7241e9f80310.ts' for writing
[hls @ 0x55ed374398c0] Opening '/data/transcodes/9a1e231188ad4d45cf13dff7241e9f80311.ts' for writing
[hls @ 0x55ed374398c0] Opening '/data/transcodes/9a1e231188ad4d45cf13dff7241e9f80312.ts' for writing
[hls @ 0x55ed374398c0] Opening '/data/transcodes/9a1e231188ad4d45cf13dff7241e9f80313.ts' for writing
[hls @ 0x55ed374398c0] Opening '/data/transcodes/9a1e231188ad4d45cf13dff7241e9f80314.ts' for writing
frame=45477 fps=6434 q=-1.0 size=N/A time=00:31:34.77 bitrate=N/A speed= 268x    
[hls @ 0x55ed374398c0] Opening '/data/transcodes/9a1e231188ad4d45cf13dff7241e9f80315.ts' for writing
[hls @ 0x55ed374398c0] Opening '/data/transcodes/9a1e231188ad4d45cf13dff7241e9f80316.ts' for writing
[hls @ 0x55ed374398c0] Opening '/data/transcodes/9a1e231188ad4d45cf13dff7241e9f80317.ts' for writing
[hls @ 0x55ed374398c0] Opening '/data/transcodes/9a1e231188ad4d45cf13dff7241e9f80318.ts' for writing
[hls @ 0x55ed374398c0] Opening '/data/transcodes/9a1e231188ad4d45cf13dff7241e9f80319.ts' for writing
[hls @ 0x55ed374398c0] Opening '/data/transcodes/9a1e231188ad4d45cf13dff7241e9f80320.ts' for writing
[hls @ 0x55ed374398c0] Opening '/data/transcodes/9a1e231188ad4d45cf13dff7241e9f80321.ts' for writing
[hls @ 0x55ed374398c0] Opening '/data/transcodes/9a1e231188ad4d45cf13dff7241e9f80322.ts' for writing
[hls @ 0x55ed374398c0] Opening '/data/transcodes/9a1e231188ad4d45cf13dff7241e9f80323.ts' for writing
[hls @ 0x55ed374398c0] Opening '/data/transcodes/9a1e231188ad4d45cf13dff7241e9f80324.ts' for writing
[hls @ 0x55ed374398c0] Opening '/data/transcodes/9a1e231188ad4d45cf13dff7241e9f80325.ts' for writing
[hls @ 0x55ed374398c0] Opening '/data/transcodes/9a1e231188ad4d45cf13dff7241e9f80326.ts' for writing
[hls @ 0x55ed374398c0] Opening '/data/transcodes/9a1e231188ad4d45cf13dff7241e9f80327.ts' for writing
[hls @ 0x55ed374398c0] Opening '/data/transcodes/9a1e231188ad4d45cf13dff7241e9f80328.ts' for writing
[hls @ 0x55ed374398c0] Opening '/data/transcodes/9a1e231188ad4d45cf13dff7241e9f80329.ts' for writing
[hls @ 0x55ed374398c0] Opening '/data/transcodes/9a1e231188ad4d45cf13dff7241e9f80330.ts' for writing
[hls @ 0x55ed374398c0] Opening '/data/transcodes/9a1e231188ad4d45cf13dff7241e9f80331.ts' for writing
[hls @ 0x55ed374398c0] Opening '/data/transcodes/9a1e231188ad4d45cf13dff7241e9f80332.ts' for writing
[hls @ 0x55ed374398c0] Opening '/data/transcodes/9a1e231188ad4d45cf13dff7241e9f80333.ts' for writing
[hls @ 0x55ed374398c0] Opening '/data/transcodes/9a1e231188ad4d45cf13dff7241e9f80334.ts' for writing
[hls @ 0x55ed374398c0] Opening '/data/transcodes/9a1e231188ad4d45cf13dff7241e9f80335.ts' for writing
[hls @ 0x55ed374398c0] Opening '/data/transcodes/9a1e231188ad4d45cf13dff7241e9f80336.ts' for writing
[hls @ 0x55ed374398c0] Opening '/data/transcodes/9a1e231188ad4d45cf13dff7241e9f80337.ts' for writing
[hls @ 0x55ed374398c0] Opening '/data/transcodes/9a1e231188ad4d45cf13dff7241e9f80338.ts' for writing
[hls @ 0x55ed374398c0] Opening '/data/transcodes/9a1e231188ad4d45cf13dff7241e9f80339.ts' for writing
[hls @ 0x55ed374398c0] Opening '/data/transcodes/9a1e231188ad4d45cf13dff7241e9f80340.ts' for writing
[hls @ 0x55ed374398c0] Opening '/data/transcodes/9a1e231188ad4d45cf13dff7241e9f80341.ts' for writing
frame=49370 fps=6523 q=-1.0 size=N/A time=00:34:16.99 bitrate=N/A speed= 272x    
[hls @ 0x55ed374398c0] Opening '/data/transcodes/9a1e231188ad4d45cf13dff7241e9f80342.ts' for writing
[hls @ 0x55ed374398c0] Opening '/data/transcodes/9a1e231188ad4d45cf13dff7241e9f80343.ts' for writing
[hls @ 0x55ed374398c0] Opening '/data/transcodes/9a1e231188ad4d45cf13dff7241e9f80344.ts' for writing
[hls @ 0x55ed374398c0] Opening '/data/transcodes/9a1e231188ad4d45cf13dff7241e9f80345.ts' for writing
[hls @ 0x55ed374398c0] Opening '/data/transcodes/9a1e231188ad4d45cf13dff7241e9f80346.ts' for writing
[hls @ 0x55ed374398c0] Opening '/data/transcodes/9a1e231188ad4d45cf13dff7241e9f80347.ts' for writing
[hls @ 0x55ed374398c0] Opening '/data/transcodes/9a1e231188ad4d45cf13dff7241e9f80348.ts' for writing
[hls @ 0x55ed374398c0] Opening '/data/transcodes/9a1e231188ad4d45cf13dff7241e9f80349.ts' for writing
[hls @ 0x55ed374398c0] Opening '/data/transcodes/9a1e231188ad4d45cf13dff7241e9f80350.ts' for writing
[hls @ 0x55ed374398c0] Opening '/data/transcodes/9a1e231188ad4d45cf13dff7241e9f80351.ts' for writing
[hls @ 0x55ed374398c0] Opening '/data/transcodes/9a1e231188ad4d45cf13dff7241e9f80352.ts' for writing
[hls @ 0x55ed374398c0] Opening '/data/transcodes/9a1e231188ad4d45cf13dff7241e9f80353.ts' for writing
[hls @ 0x55ed374398c0] Opening '/data/transcodes/9a1e231188ad4d45cf13dff7241e9f80354.ts' for writing
[hls @ 0x55ed374398c0] Opening '/data/transcodes/9a1e231188ad4d45cf13dff7241e9f80355.ts' for writing
[hls @ 0x55ed374398c0] Opening '/data/transcodes/9a1e231188ad4d45cf13dff7241e9f80356.ts' for writing
[hls @ 0x55ed374398c0] Opening '/data/transcodes/9a1e231188ad4d45cf13dff7241e9f80357.ts' for writing
[hls @ 0x55ed374398c0] Opening '/data/transcodes/9a1e231188ad4d45cf13dff7241e9f80358.ts' for writing
[hls @ 0x55ed374398c0] Opening '/data/transcodes/9a1e231188ad4d45cf13dff7241e9f80359.ts' for writing
[hls @ 0x55ed374398c0] Opening '/data/transcodes/9a1e231188ad4d45cf13dff7241e9f80360.ts' for writing
[hls @ 0x55ed374398c0] Opening '/data/transcodes/9a1e231188ad4d45cf13dff7241e9f80361.ts' for writing
[hls @ 0x55ed374398c0] Opening '/data/transcodes/9a1e231188ad4d45cf13dff7241e9f80362.ts' for writing
[hls @ 0x55ed374398c0] Opening '/data/transcodes/9a1e231188ad4d45cf13dff7241e9f80363.ts' for writing
[hls @ 0x55ed374398c0] Opening '/data/transcodes/9a1e231188ad4d45cf13dff7241e9f80364.ts' for writing
[hls @ 0x55ed374398c0] Opening '/data/transcodes/9a1e231188ad4d45cf13dff7241e9f80365.ts' for writing
[hls @ 0x55ed374398c0] Opening '/data/transcodes/9a1e231188ad4d45cf13dff7241e9f80366.ts' for writing
[hls @ 0x55ed374398c0] Opening '/data/transcodes/9a1e231188ad4d45cf13dff7241e9f80367.ts' for writing
[hls @ 0x55ed374398c0] Opening '/data/transcodes/9a1e231188ad4d45cf13dff7241e9f80368.ts' for writing
[hls @ 0x55ed374398c0] Opening '/data/transcodes/9a1e231188ad4d45cf13dff7241e9f80369.ts' for writing
[hls @ 0x55ed374398c0] Opening '/data/transcodes/9a1e231188ad4d45cf13dff7241e9f80370.ts' for writing
[hls @ 0x55ed374398c0] Opening '/data/transcodes/9a1e231188ad4d45cf13dff7241e9f80371.ts' for writing
[hls @ 0x55ed374398c0] Opening '/data/transcodes/9a1e231188ad4d45cf13dff7241e9f80372.ts' for writing
[hls @ 0x55ed374398c0] Opening '/data/transcodes/9a1e231188ad4d45cf13dff7241e9f80373.ts' for writing
[hls @ 0x55ed374398c0] Opening '/data/transcodes/9a1e231188ad4d45cf13dff7241e9f80374.ts' for writing
[hls @ 0x55ed374398c0] Opening '/data/transcodes/9a1e231188ad4d45cf13dff7241e9f80375.ts' for writing
[hls @ 0x55ed374398c0] Opening '/data/transcodes/9a1e231188ad4d45cf13dff7241e9f80376.ts' for writing
[hls @ 0x55ed374398c0] Opening '/data/transcodes/9a1e231188ad4d45cf13dff7241e9f80377.ts' for writing
[hls @ 0x55ed374398c0] Opening '/data/transcodes/9a1e231188ad4d45cf13dff7241e9f80378.ts' for writing
frame=54606 fps=6765 q=-1.0 size=N/A time=00:37:55.12 bitrate=N/A speed= 282x    
[hls @ 0x55ed374398c0] Opening '/data/transcodes/9a1e231188ad4d45cf13dff7241e9f80379.ts' for writing
[hls @ 0x55ed374398c0] Opening '/data/transcodes/9a1e231188ad4d45cf13dff7241e9f80380.ts' for writing
[hls @ 0x55ed374398c0] Opening '/data/transcodes/9a1e231188ad4d45cf13dff7241e9f80381.ts' for writing
[hls @ 0x55ed374398c0] Opening '/data/transcodes/9a1e231188ad4d45cf13dff7241e9f80382.ts' for writing
[hls @ 0x55ed374398c0] Opening '/data/transcodes/9a1e231188ad4d45cf13dff7241e9f80383.ts' for writing
[hls @ 0x55ed374398c0] Opening '/data/transcodes/9a1e231188ad4d45cf13dff7241e9f80384.ts' for writing
[hls @ 0x55ed374398c0] Opening '/data/transcodes/9a1e231188ad4d45cf13dff7241e9f80385.ts' for writing
[hls @ 0x55ed374398c0] Opening '/data/transcodes/9a1e231188ad4d45cf13dff7241e9f80386.ts' for writing
[hls @ 0x55ed374398c0] Opening '/data/transcodes/9a1e231188ad4d45cf13dff7241e9f80387.ts' for writing
[hls @ 0x55ed374398c0] Opening '/data/transcodes/9a1e231188ad4d45cf13dff7241e9f80388.ts' for writing
[hls @ 0x55ed374398c0] Opening '/data/transcodes/9a1e231188ad4d45cf13dff7241e9f80389.ts' for writing
[hls @ 0x55ed374398c0] Opening '/data/transcodes/9a1e231188ad4d45cf13dff7241e9f80390.ts' for writing
[hls @ 0x55ed374398c0] Opening '/data/transcodes/9a1e231188ad4d45cf13dff7241e9f80391.ts' for writing
[hls @ 0x55ed374398c0] Opening '/data/transcodes/9a1e231188ad4d45cf13dff7241e9f80392.ts' for writing
[hls @ 0x55ed374398c0] Opening '/data/transcodes/9a1e231188ad4d45cf13dff7241e9f80393.ts' for writing
[hls @ 0x55ed374398c0] Opening '/data/transcodes/9a1e231188ad4d45cf13dff7241e9f80394.ts' for writing
[hls @ 0x55ed374398c0] Opening '/data/transcodes/9a1e231188ad4d45cf13dff7241e9f80395.ts' for writing
[hls @ 0x55ed374398c0] Opening '/data/transcodes/9a1e231188ad4d45cf13dff7241e9f80396.ts' for writing
[hls @ 0x55ed374398c0] Opening '/data/transcodes/9a1e231188ad4d45cf13dff7241e9f80397.ts' for writing
[hls @ 0x55ed374398c0] Opening '/data/transcodes/9a1e231188ad4d45cf13dff7241e9f80398.ts' for writing
[hls @ 0x55ed374398c0] Opening '/data/transcodes/9a1e231188ad4d45cf13dff7241e9f80399.ts' for writing
[hls @ 0x55ed374398c0] Opening '/data/transcodes/9a1e231188ad4d45cf13dff7241e9f80400.ts' for writing
[hls @ 0x55ed374398c0] Opening '/data/transcodes/9a1e231188ad4d45cf13dff7241e9f80401.ts' for writing
[hls @ 0x55ed374398c0] Opening '/data/transcodes/9a1e231188ad4d45cf13dff7241e9f80402.ts' for writing
[hls @ 0x55ed374398c0] Opening '/data/transcodes/9a1e231188ad4d45cf13dff7241e9f80403.ts' for writing
[hls @ 0x55ed374398c0] Opening '/data/transcodes/9a1e231188ad4d45cf13dff7241e9f80404.ts' for writing
[hls @ 0x55ed374398c0] Opening '/data/transcodes/9a1e231188ad4d45cf13dff7241e9f80405.ts' for writing
[hls @ 0x55ed374398c0] Opening '/data/transcodes/9a1e231188ad4d45cf13dff7241e9f80406.ts' for writing
[hls @ 0x55ed374398c0] Opening '/data/transcodes/9a1e231188ad4d45cf13dff7241e9f80407.ts' for writing
[hls @ 0x55ed374398c0] Opening '/data/transcodes/9a1e231188ad4d45cf13dff7241e9f80408.ts' for writing
[hls @ 0x55ed374398c0] Opening '/data/transcodes/9a1e231188ad4d45cf13dff7241e9f80409.ts' for writing
[hls @ 0x55ed374398c0] Opening '/data/transcodes/9a1e231188ad4d45cf13dff7241e9f80410.ts' for writing
[hls @ 0x55ed374398c0] Opening '/data/transcodes/9a1e231188ad4d45cf13dff7241e9f80411.ts' for writing
[hls @ 0x55ed374398c0] Opening '/data/transcodes/9a1e231188ad4d45cf13dff7241e9f80412.ts' for writing
[hls @ 0x55ed374398c0] Opening '/data/transcodes/9a1e231188ad4d45cf13dff7241e9f80413.ts' for writing
[hls @ 0x55ed374398c0] Opening '/data/transcodes/9a1e231188ad4d45cf13dff7241e9f80414.ts' for writing
[hls @ 0x55ed374398c0] Opening '/data/transcodes/9a1e231188ad4d45cf13dff7241e9f80415.ts' for writing
[hls @ 0x55ed374398c0] Opening '/data/transcodes/9a1e231188ad4d45cf13dff7241e9f80416.ts' for writing
[hls @ 0x55ed374398c0] Opening '/data/transcodes/9a1e231188ad4d45cf13dff7241e9f80417.ts' for writing
[hls @ 0x55ed374398c0] Opening '/data/transcodes/9a1e231188ad4d45cf13dff7241e9f80418.ts' for writing
[hls @ 0x55ed374398c0] Opening '/data/transcodes/9a1e231188ad4d45cf13dff7241e9f80419.ts' for writing
[hls @ 0x55ed374398c0] Opening '/data/transcodes/9a1e231188ad4d45cf13dff7241e9f80420.ts' for writing
[hls @ 0x55ed374398c0] Opening '/data/transcodes/9a1e231188ad4d45cf13dff7241e9f80421.ts' for writing
frame=60890 fps=7104 q=-1.0 size=N/A time=00:42:17.01 bitrate=N/A speed= 296x    
[hls @ 0x55ed374398c0] Opening '/data/transcodes/9a1e231188ad4d45cf13dff7241e9f80422.ts' for writing
[hls @ 0x55ed374398c0] Opening '/data/transcodes/9a1e231188ad4d45cf13dff7241e9f80423.ts' for writing
[hls @ 0x55ed374398c0] Opening '/data/transcodes/9a1e231188ad4d45cf13dff7241e9f80424.ts' for writing
[hls @ 0x55ed374398c0] Opening '/data/transcodes/9a1e231188ad4d45cf13dff7241e9f80425.ts' for writing
[hls @ 0x55ed374398c0] Opening '/data/transcodes/9a1e231188ad4d45cf13dff7241e9f80426.ts' for writing
[hls @ 0x55ed374398c0] Opening '/data/transcodes/9a1e231188ad4d45cf13dff7241e9f80427.ts' for writing
[hls @ 0x55ed374398c0] Opening '/data/transcodes/9a1e231188ad4d45cf13dff7241e9f80428.ts' for writing
[hls @ 0x55ed374398c0] Opening '/data/transcodes/9a1e231188ad4d45cf13dff7241e9f80429.ts' for writing
[hls @ 0x55ed374398c0] Opening '/data/transcodes/9a1e231188ad4d45cf13dff7241e9f80430.ts' for writing
[hls @ 0x55ed374398c0] Opening '/data/transcodes/9a1e231188ad4d45cf13dff7241e9f80431.ts' for writing
[hls @ 0x55ed374398c0] Opening '/data/transcodes/9a1e231188ad4d45cf13dff7241e9f80432.ts' for writing
[hls @ 0x55ed374398c0] Opening '/data/transcodes/9a1e231188ad4d45cf13dff7241e9f80433.ts' for writing
[hls @ 0x55ed374398c0] Opening '/data/transcodes/9a1e231188ad4d45cf13dff7241e9f80434.ts' for writing
[hls @ 0x55ed374398c0] Opening '/data/transcodes/9a1e231188ad4d45cf13dff7241e9f80435.ts' for writing
[hls @ 0x55ed374398c0] Opening '/data/transcodes/9a1e231188ad4d45cf13dff7241e9f80436.ts' for writing
[hls @ 0x55ed374398c0] Opening '/data/transcodes/9a1e231188ad4d45cf13dff7241e9f80437.ts' for writing
[hls @ 0x55ed374398c0] Opening '/data/transcodes/9a1e231188ad4d45cf13dff7241e9f80438.ts' for writing
[hls @ 0x55ed374398c0] Opening '/data/transcodes/9a1e231188ad4d45cf13dff7241e9f80439.ts' for writing
[hls @ 0x55ed374398c0] Opening '/data/transcodes/9a1e231188ad4d45cf13dff7241e9f80440.ts' for writing
[hls @ 0x55ed374398c0] Opening '/data/transcodes/9a1e231188ad4d45cf13dff7241e9f80441.ts' for writing
[hls @ 0x55ed374398c0] Opening '/data/transcodes/9a1e231188ad4d45cf13dff7241e9f80442.ts' for writing
[hls @ 0x55ed374398c0] Opening '/data/transcodes/9a1e231188ad4d45cf13dff7241e9f80443.ts' for writing
[hls @ 0x55ed374398c0] Opening '/data/transcodes/9a1e231188ad4d45cf13dff7241e9f80444.ts' for writing
[hls @ 0x55ed374398c0] Opening '/data/transcodes/9a1e231188ad4d45cf13dff7241e9f80445.ts' for writing
[hls @ 0x55ed374398c0] Opening '/data/transcodes/9a1e231188ad4d45cf13dff7241e9f80446.ts' for writing
[hls @ 0x55ed374398c0] Opening '/data/transcodes/9a1e231188ad4d45cf13dff7241e9f80447.ts' for writing
[hls @ 0x55ed374398c0] Opening '/data/transcodes/9a1e231188ad4d45cf13dff7241e9f80448.ts' for writing
[hls @ 0x55ed374398c0] Opening '/data/transcodes/9a1e231188ad4d45cf13dff7241e9f80449.ts' for writing
[hls @ 0x55ed374398c0] Opening '/data/transcodes/9a1e231188ad4d45cf13dff7241e9f80450.ts' for writing
[hls @ 0x55ed374398c0] Opening '/data/transcodes/9a1e231188ad4d45cf13dff7241e9f80451.ts' for writing
[hls @ 0x55ed374398c0] Opening '/data/transcodes/9a1e231188ad4d45cf13dff7241e9f80452.ts' for writing
[hls @ 0x55ed374398c0] Opening '/data/transcodes/9a1e231188ad4d45cf13dff7241e9f80453.ts' for writing
frame=65438 fps=7207 q=-1.0 size=N/A time=00:45:26.52 bitrate=N/A speed= 300x    
[hls @ 0x55ed374398c0] Opening '/data/transcodes/9a1e231188ad4d45cf13dff7241e9f80454.ts' for writing
[hls @ 0x55ed374398c0] Opening '/data/transcodes/9a1e231188ad4d45cf13dff7241e9f80455.ts' for writing
[hls @ 0x55ed374398c0] Opening '/data/transcodes/9a1e231188ad4d45cf13dff7241e9f80456.ts' for writing
[hls @ 0x55ed374398c0] Opening '/data/transcodes/9a1e231188ad4d45cf13dff7241e9f80457.ts' for writing
[hls @ 0x55ed374398c0] Opening '/data/transcodes/9a1e231188ad4d45cf13dff7241e9f80458.ts' for writing
[hls @ 0x55ed374398c0] Opening '/data/transcodes/9a1e231188ad4d45cf13dff7241e9f80459.ts' for writing
[hls @ 0x55ed374398c0] Opening '/data/transcodes/9a1e231188ad4d45cf13dff7241e9f80460.ts' for writing
[hls @ 0x55ed374398c0] Opening '/data/transcodes/9a1e231188ad4d45cf13dff7241e9f80461.ts' for writing
[hls @ 0x55ed374398c0] Opening '/data/transcodes/9a1e231188ad4d45cf13dff7241e9f80462.ts' for writing
[hls @ 0x55ed374398c0] Opening '/data/transcodes/9a1e231188ad4d45cf13dff7241e9f80463.ts' for writing
[hls @ 0x55ed374398c0] Opening '/data/transcodes/9a1e231188ad4d45cf13dff7241e9f80464.ts' for writing
[hls @ 0x55ed374398c0] Opening '/data/transcodes/9a1e231188ad4d45cf13dff7241e9f80465.ts' for writing
[hls @ 0x55ed374398c0] Opening '/data/transcodes/9a1e231188ad4d45cf13dff7241e9f80466.ts' for writing
[hls @ 0x55ed374398c0] Opening '/data/transcodes/9a1e231188ad4d45cf13dff7241e9f80467.ts' for writing
[hls @ 0x55ed374398c0] Opening '/data/transcodes/9a1e231188ad4d45cf13dff7241e9f80468.ts' for writing
[hls @ 0x55ed374398c0] Opening '/data/transcodes/9a1e231188ad4d45cf13dff7241e9f80469.ts' for writing
[hls @ 0x55ed374398c0] Opening '/data/transcodes/9a1e231188ad4d45cf13dff7241e9f80470.ts' for writing
[hls @ 0x55ed374398c0] Opening '/data/transcodes/9a1e231188ad4d45cf13dff7241e9f80471.ts' for writing
[hls @ 0x55ed374398c0] Opening '/data/transcodes/9a1e231188ad4d45cf13dff7241e9f80472.ts' for writing
[hls @ 0x55ed374398c0] Opening '/data/transcodes/9a1e231188ad4d45cf13dff7241e9f80473.ts' for writing
[hls @ 0x55ed374398c0] Opening '/data/transcodes/9a1e231188ad4d45cf13dff7241e9f80474.ts' for writing
[hls @ 0x55ed374398c0] Opening '/data/transcodes/9a1e231188ad4d45cf13dff7241e9f80475.ts' for writing
frame=68570 fps=7155 q=-1.0 size=N/A time=00:47:36.96 bitrate=N/A speed= 298x    
[hls @ 0x55ed374398c0] Opening '/data/transcodes/9a1e231188ad4d45cf13dff7241e9f80476.ts' for writing
[hls @ 0x55ed374398c0] Opening '/data/transcodes/9a1e231188ad4d45cf13dff7241e9f80477.ts' for writing
[hls @ 0x55ed374398c0] Opening '/data/transcodes/9a1e231188ad4d45cf13dff7241e9f80478.ts' for writing
[hls @ 0x55ed374398c0] Opening '/data/transcodes/9a1e231188ad4d45cf13dff7241e9f80479.ts' for writing
[hls @ 0x55ed374398c0] Opening '/data/transcodes/9a1e231188ad4d45cf13dff7241e9f80480.ts' for writing
[hls @ 0x55ed374398c0] Opening '/data/transcodes/9a1e231188ad4d45cf13dff7241e9f80481.ts' for writing
[hls @ 0x55ed374398c0] Opening '/data/transcodes/9a1e231188ad4d45cf13dff7241e9f80482.ts' for writing
[hls @ 0x55ed374398c0] Opening '/data/transcodes/9a1e231188ad4d45cf13dff7241e9f80483.ts' for writing
[hls @ 0x55ed374398c0] Opening '/data/transcodes/9a1e231188ad4d45cf13dff7241e9f80484.ts' for writing
[hls @ 0x55ed374398c0] Opening '/data/transcodes/9a1e231188ad4d45cf13dff7241e9f80485.ts' for writing
[hls @ 0x55ed374398c0] Opening '/data/transcodes/9a1e231188ad4d45cf13dff7241e9f80486.ts' for writing
[hls @ 0x55ed374398c0] Opening '/data/transcodes/9a1e231188ad4d45cf13dff7241e9f80487.ts' for writing
[hls @ 0x55ed374398c0] Opening '/data/transcodes/9a1e231188ad4d45cf13dff7241e9f80488.ts' for writing
[hls @ 0x55ed374398c0] Opening '/data/transcodes/9a1e231188ad4d45cf13dff7241e9f80489.ts' for writing
[hls @ 0x55ed374398c0] Opening '/data/transcodes/9a1e231188ad4d45cf13dff7241e9f80490.ts' for writing
[hls @ 0x55ed374398c0] Opening '/data/transcodes/9a1e231188ad4d45cf13dff7241e9f80491.ts' for writing
[hls @ 0x55ed374398c0] Opening '/data/transcodes/9a1e231188ad4d45cf13dff7241e9f80492.ts' for writing
[hls @ 0x55ed374398c0] Opening '/data/transcodes/9a1e231188ad4d45cf13dff7241e9f80493.ts' for writing
[hls @ 0x55ed374398c0] Opening '/data/transcodes/9a1e231188ad4d45cf13dff7241e9f80494.ts' for writing
[hls @ 0x55ed374398c0] Opening '/data/transcodes/9a1e231188ad4d45cf13dff7241e9f80495.ts' for writing
[hls @ 0x55ed374398c0] Opening '/data/transcodes/9a1e231188ad4d45cf13dff7241e9f80496.ts' for writing
[hls @ 0x55ed374398c0] Opening '/data/transcodes/9a1e231188ad4d45cf13dff7241e9f80497.ts' for writing
frame=71914 fps=7129 q=-1.0 size=N/A time=00:49:56.35 bitrate=N/A speed= 297x    
[hls @ 0x55ed374398c0] Opening '/data/transcodes/9a1e231188ad4d45cf13dff7241e9f80498.ts' for writing
[hls @ 0x55ed374398c0] Opening '/data/transcodes/9a1e231188ad4d45cf13dff7241e9f80499.ts' for writing
[hls @ 0x55ed374398c0] Opening '/data/transcodes/9a1e231188ad4d45cf13dff7241e9f80500.ts' for writing
[hls @ 0x55ed374398c0] Opening '/data/transcodes/9a1e231188ad4d45cf13dff7241e9f80501.ts' for writing
[hls @ 0x55ed374398c0] Opening '/data/transcodes/9a1e231188ad4d45cf13dff7241e9f80502.ts' for writing
[hls @ 0x55ed374398c0] Opening '/data/transcodes/9a1e231188ad4d45cf13dff7241e9f80503.ts' for writing
[hls @ 0x55ed374398c0] Opening '/data/transcodes/9a1e231188ad4d45cf13dff7241e9f80504.ts' for writing
[hls @ 0x55ed374398c0] Opening '/data/transcodes/9a1e231188ad4d45cf13dff7241e9f80505.ts' for writing
[hls @ 0x55ed374398c0] Opening '/data/transcodes/9a1e231188ad4d45cf13dff7241e9f80506.ts' for writing
[hls @ 0x55ed374398c0] Opening '/data/transcodes/9a1e231188ad4d45cf13dff7241e9f80507.ts' for writing
[hls @ 0x55ed374398c0] Opening '/data/transcodes/9a1e231188ad4d45cf13dff7241e9f80508.ts' for writing
[hls @ 0x55ed374398c0] Opening '/data/transcodes/9a1e231188ad4d45cf13dff7241e9f80509.ts' for writing
[hls @ 0x55ed374398c0] Opening '/data/transcodes/9a1e231188ad4d45cf13dff7241e9f80510.ts' for writing
[hls @ 0x55ed374398c0] Opening '/data/transcodes/9a1e231188ad4d45cf13dff7241e9f80511.ts' for writing
[hls @ 0x55ed374398c0] Opening '/data/transcodes/9a1e231188ad4d45cf13dff7241e9f80512.ts' for writing
[hls @ 0x55ed374398c0] Opening '/data/transcodes/9a1e231188ad4d45cf13dff7241e9f80513.ts' for writing
[hls @ 0x55ed374398c0] Opening '/data/transcodes/9a1e231188ad4d45cf13dff7241e9f80514.ts' for writing
[hls @ 0x55ed374398c0] Opening '/data/transcodes/9a1e231188ad4d45cf13dff7241e9f80515.ts' for writing
[hls @ 0x55ed374398c0] Opening '/data/transcodes/9a1e231188ad4d45cf13dff7241e9f80516.ts' for writing
[hls @ 0x55ed374398c0] Opening '/data/transcodes/9a1e231188ad4d45cf13dff7241e9f80517.ts' for writing
[hls @ 0x55ed374398c0] Opening '/data/transcodes/9a1e231188ad4d45cf13dff7241e9f80518.ts' for writing
[hls @ 0x55ed374398c0] Opening '/data/transcodes/9a1e231188ad4d45cf13dff7241e9f80519.ts' for writing
[hls @ 0x55ed374398c0] Opening '/data/transcodes/9a1e231188ad4d45cf13dff7241e9f80520.ts' for writing
[hls @ 0x55ed374398c0] Opening '/data/transcodes/9a1e231188ad4d45cf13dff7241e9f80521.ts' for writing
[hls @ 0x55ed374398c0] Opening '/data/transcodes/9a1e231188ad4d45cf13dff7241e9f80522.ts' for writing
[hls @ 0x55ed374398c0] Opening '/data/transcodes/9a1e231188ad4d45cf13dff7241e9f80523.ts' for writing
[hls @ 0x55ed374398c0] Opening '/data/transcodes/9a1e231188ad4d45cf13dff7241e9f80524.ts' for writing
[hls @ 0x55ed374398c0] Opening '/data/transcodes/9a1e231188ad4d45cf13dff7241e9f80525.ts' for writing
[hls @ 0x55ed374398c0] Opening '/data/transcodes/9a1e231188ad4d45cf13dff7241e9f80526.ts' for writing
frame=76030 fps=7452 q=-1.0 Lsize=N/A time=00:52:47.95 bitrate=N/A speed= 310x    
video:2460876kB audio:61875kB subtitle:0kB other streams:0kB global headers:0kB muxing overhead: unknown